<?xml version="1.0" standalone="no"?><!DOCTYPE svg PUBLIC "-//W3C//DTD SVG 1.1//EN" "http://www.w3.org/Graphics/SVG/1.1/DTD/svg11.dtd"><svg t="1641716193581" class="icon" viewBox="0 0 1024 1024" version="1.1" xmlns="http://www.w3.org/2000/svg" p-id="10094" xmlns:xlink="http://www.w3.org/1999/xlink" width="48" height="48"><defs><style type="text/css"></style></defs><path d="M817.052349 654.260403l-218.544966 217.170469c-7.559732 7.559732-14.432215 17.181208-18.555705 27.489933l-50.169128 119.581208-449.460402 1.374497c-24.74094 0-43.983893-19.930201-43.983893-43.983893V46.045638C36.338255 21.304698 56.268456 2.061745 80.322148 2.061745h509.938255l228.853691 250.845638 4.810738 395.167785" fill="#4988FD" p-id="10095"></path><path d="M454.872483 802.70604H282.373154c-5.497987 0-10.308725-4.810738-10.308724-10.308725s4.810738-10.308725 10.308724-10.308724h172.499329c5.497987 0 10.308725 4.810738 10.308725 10.308724s-4.810738 10.308725-10.308725 10.308725zM235.640268 802.70604h-67.350335c-5.497987 0-10.308725-4.810738-10.308725-10.308725s4.810738-10.308725 10.308725-10.308724h67.350335c5.497987 0 10.308725 4.810738 10.308725 10.308724s-4.810738 10.308725-10.308725 10.308725zM664.483221 689.310067H493.358389c-5.497987 0-10.308725-4.810738-10.308725-10.308725s4.810738-10.308725 10.308725-10.308725h171.124832c5.497987 0 10.308725 4.810738 10.308725 10.308725s-4.810738 10.308725-10.308725 10.308725zM421.197315 689.310067H171.726174c-5.497987 0-10.308725-4.810738-10.308724-10.308725s4.810738-10.308725 10.308724-10.308725h249.471141c5.497987 0 10.308725 4.810738 10.308725 10.308725s-4.810738 10.308725-10.308725 10.308725zM672.042953 575.226846h-59.790604c-5.497987 0-10.308725-4.810738-10.308725-10.308725s4.810738-10.308725 10.308725-10.308725h59.790604c5.497987 0 10.308725 4.810738 10.308725 10.308725 0.687248 5.497987-4.12349 10.308725-10.308725 10.308725zM540.091275 575.226846H175.162416c-5.497987 0-10.308725-4.810738-10.308725-10.308725s4.810738-10.308725 10.308725-10.308725h364.928859c5.497987 0 10.308725 4.810738 10.308725 10.308725s-4.810738 10.308725-10.308725 10.308725zM670.668456 461.830872H435.62953c-5.497987 0-10.308725-4.810738-10.308725-10.308724s4.810738-10.308725 10.308725-10.308725h235.038926c5.497987 0 10.308725 4.810738 10.308725 10.308725s-4.12349 10.308725-10.308725 10.308724zM360.032215 461.830872H178.598658c-5.497987 0-10.308725-4.810738-10.308725-10.308724s4.810738-10.308725 10.308725-10.308725h181.433557c5.497987 0 10.308725 4.810738 10.308725 10.308725s-4.810738 10.308725-10.308725 10.308724z" fill="#C5DCFA" p-id="10096"></path><path d="M487.860403 160.816107H182.034899c-7.559732 0-13.744966-6.185235-13.744966-13.744966s6.185235-13.744966 13.744966-13.744967H487.860403c7.559732 0 13.744966 6.185235 13.744966 13.744967 0 6.872483-6.185235 13.744966-13.744966 13.744966zM298.867114 241.224161h-116.832215c-7.559732 0-13.744966-6.185235-13.744966-13.744966s6.185235-13.744966 13.744966-13.744967h116.832215c7.559732 0 13.744966 6.185235 13.744967 13.744967s-6.185235 13.744966-13.744967 13.744966z" fill="#FFFFFF" p-id="10097"></path><path d="M582.700671 2.061745v199.302013c0 27.489933 24.053691 50.856376 51.543624 50.856376h177.310067" fill="#3973F4" p-id="10098"></path><path d="M672.042953 981.390604l-79.033557 30.926175c-10.308725 4.12349-20.61745-6.185235-16.49396-16.49396l30.926175-79.033557c3.436242-8.24698 8.24698-15.806711 14.432215-22.679195l290.018791-290.018792c7.559732-7.559732 19.242953-7.559732 26.802685 0l45.358389 45.358389c7.559732 7.559732 7.559732 19.242953 0 26.802685L694.034899 966.271141c-6.185235 6.872483-13.744966 11.683221-21.991946 15.119463z" fill="#4988FD" p-id="10099"></path><path d="M665.857718 936.719463c-3.436242 0-6.872483-1.374497-9.621476-4.12349-5.497987-5.497987-5.497987-14.432215 0-19.930201l261.154362-261.154363c5.497987-5.497987 14.432215-5.497987 19.930201 0 5.497987 5.497987 5.497987 14.432215 0 19.930202l-261.154362 261.154362c-2.748993 2.748993-6.185235 4.12349-10.308725 4.12349z" fill="#3973F4" p-id="10100"></path></svg>